<svg xmlns="http://www.w3.org/2000/svg" viewBox="0 0 400 300">
  <defs>
    <linearGradient id="skyGradient" x1="0%" y1="0%" x2="0%" y2="100%">
      <stop offset="0%" style="stop-color:#87CEEB;stop-opacity:1" />
      <stop offset="100%" style="stop-color:#E0F6FF;stop-opacity:1" />
    </linearGradient>
    <linearGradient id="grassGradient" x1="0%" y1="0%" x2="0%" y2="100%">
      <stop offset="0%" style="stop-color:#90EE90;stop-opacity:1" />
      <stop offset="100%" style="stop-color:#32CD32;stop-opacity:1" />
    </linearGradient>
  </defs>
  
  <!-- Sky background -->
  <rect width="400" height="200" fill="url(#skyGradient)"/>
  
  <!-- Ground -->
  <rect y="200" width="400" height="100" fill="url(#grassGradient)"/>
  
  <!-- Mountains in background -->
  <polygon points="0,180 80,120 160,180" fill="#A8D5BA" opacity="0.7"/>
  <polygon points="120,180 200,100 280,180" fill="#81C784" opacity="0.8"/>
  <polygon points="240,180 320,130 400,180" fill="#A8D5BA" opacity="0.6"/>
  
  <!-- Trees -->
  <circle cx="100" cy="170" r="25" fill="#228B22"/>
  <rect x="95" y="170" width="10" height="30" fill="#8B4513"/>
  
  <circle cx="300" cy="160" r="30" fill="#32CD32"/>
  <rect x="295" y="160" width="10" height="40" fill="#8B4513"/>
  
  <!-- Flowers -->
  <circle cx="50" cy="220" r="3" fill="#FFB6C1"/>
  <circle cx="150" cy="230" r="3" fill="#FFB6C1"/>
  <circle cx="250" cy="225" r="3" fill="#DDA0DD"/>
  <circle cx="350" cy="235" r="3" fill="#FFB6C1"/>
  
  <!-- Sun -->
  <circle cx="350" cy="50" r="20" fill="#FFD700" opacity="0.8"/>
  
  <!-- Clouds -->
  <ellipse cx="80" cy="60" rx="20" ry="10" fill="white" opacity="0.8"/>
  <ellipse cx="95" cy="55" rx="15" ry="8" fill="white" opacity="0.8"/>
  <ellipse cx="250" cy="70" rx="25" ry="12" fill="white" opacity="0.7"/>
  <ellipse cx="270" cy="65" rx="18" ry="9" fill="white" opacity="0.7"/>
</svg>
